<svg width="156" height="40" viewBox="0 0 156 40" fill="none" xmlns="http://www.w3.org/2000/svg">
<path fill-rule="evenodd" clip-rule="evenodd" d="M68.4711 32.2222C68.6758 32.9052 68.13 32.768 68.13 33.1099C69.2892 33.1099 69.221 32.6998 69.7668 32.6316C69.9026 32.6316 69.9026 33.6557 70.7889 33.3145C70.9253 33.2463 71.2665 33.5875 70.9253 33.7239C70.9253 33.7239 69.6986 34.5433 69.9026 34.5433C70.039 34.5433 70.7889 34.5433 70.8571 34.6798V34.6115C62.4028 41.1655 9.49397 41.1655 1.0397 34.6115V34.6798C1.10726 34.5433 1.78954 34.5433 1.926 34.5433C2.13001 34.5433 0.971474 33.7921 0.971474 33.7239C0.630334 33.5875 0.971474 33.2463 1.0397 33.3145C1.926 33.6557 1.926 32.6316 2.13001 32.6316C2.67584 32.6998 2.60761 33.1099 3.76682 33.1099C3.76682 32.768 3.28922 32.9052 3.49391 32.2222C15.494 38.2979 56.5392 38.2979 68.4711 32.2222ZM54.1526 10.0354C54.9031 9.8307 55.4483 9.35243 55.7894 8.73838C55.7212 8.5337 55.38 8.26011 54.7666 8.05543C52.3118 3.82261 51.085 1.63864 51.085 1.63864C51.1526 1.36506 51.4937 1.09215 52.1753 0.819239C40.5163 -0.27308 32.4714 -0.27308 20.88 0.819239C21.5623 1.09215 21.971 1.36506 21.971 1.63864C21.971 1.63864 20.7436 3.75438 18.2894 8.05543C17.676 8.26011 17.3348 8.5337 17.2666 8.73838C17.6078 9.35243 18.0847 9.8307 18.9028 10.0354C30.9711 10.1718 42.0167 10.1718 54.1526 10.0354ZM38.4708 1.02392C38.6755 0.955695 38.812 0.887467 38.812 0.682782C43.1077 0.819239 45.5619 1.02392 46.2435 1.16038C46.0395 1.43329 45.9712 1.63864 45.9712 1.63864C43.994 1.16038 42.5618 2.52561 41.7438 5.87079L36.4936 5.93902L31.244 5.87079C30.4259 2.59384 28.9938 1.16038 27.0165 1.63864C27.0165 1.63864 26.9483 1.50152 26.7436 1.16038C27.4259 1.02392 29.8801 0.819239 34.1758 0.682782C34.244 0.887467 34.3805 1.02392 34.5163 1.02392C35.8119 1.02392 37.1758 1.02392 38.4708 1.02392ZM39.4936 8.80661C39.3578 7.71429 40.2441 6.96311 42.0167 6.48551C42.2214 5.46142 42.4254 4.77847 42.8348 4.50556C46.9258 4.77847 48.9713 4.91493 48.9713 4.91493C49.3117 3.95974 49.7211 3.0721 50.2663 2.38915C51.6984 4.64202 52.5165 6.07548 52.6529 6.62197C50.8803 6.00725 49.9258 5.46142 49.7893 4.98316C50.1305 6.07548 50.7439 6.82665 51.8348 7.30425C52.5165 7.71429 52.7894 8.32834 52.6529 9.21598C41.9485 9.21598 31.244 9.21598 20.4713 9.21598C20.3349 8.32834 20.6078 7.71429 21.2894 7.30425C22.3804 6.82665 23.062 6.07548 23.3349 4.98316C23.1984 5.46142 22.2439 6.00725 20.4031 6.62197C20.6078 6.07548 21.3576 4.64202 22.8573 2.38915C23.4031 3.0721 23.8118 3.95974 24.153 4.91493C24.153 4.91493 26.1985 4.77847 30.2213 4.50556C30.4942 4.77847 30.7664 5.46142 30.9029 6.48551C32.7437 6.96311 33.5618 7.71429 33.426 8.80661C35.539 8.80661 37.4481 8.80661 39.4936 8.80661ZM24.4259 6.48551H29.7437C30.0848 6.48551 30.3577 6.75843 30.3577 7.09957C30.3577 7.44138 30.0848 7.71429 29.7437 7.71429H24.4259C24.0847 7.71429 23.8118 7.44138 23.8118 7.09957C23.8801 6.75843 24.153 6.48551 24.4259 6.48551ZM48.4937 6.48551H43.1759C42.8348 6.48551 42.5618 6.75843 42.5618 7.09957C42.5618 7.44138 42.8348 7.71429 43.1759 7.71429H48.4937C48.8348 7.71429 49.1077 7.44138 49.1077 7.09957C49.1077 6.75843 48.8348 6.48551 48.4937 6.48551ZM49.994 29.4235C50.4027 29.56 50.6074 29.6282 50.6074 29.6282C48.7666 30.857 40.9939 30.7205 38.335 30.857C36.3578 30.9252 34.6527 30.9252 33.3577 30.7888C30.9029 30.5841 22.5168 30.7205 21.3576 29.6964C21.7663 29.4235 21.971 29.2864 21.971 29.2864C23.4714 30.7205 48.0167 30.7205 49.994 29.4235ZM41.2668 27.1707C45.8348 26.8289 48.6301 26.6924 49.5164 26.5559C49.3117 26.0101 48.6984 25.7365 47.6074 25.6001C39.4936 26.0783 31.5169 26.0783 23.6754 25.5319C22.9255 25.7365 22.5168 26.0783 22.4486 26.4195C23.8801 26.6924 26.6078 26.8971 30.4942 27.1707C31.4487 27.2389 33.0848 28.1259 35.4708 29.4235C35.8119 29.6282 36.1531 29.6282 36.426 29.4235C38.812 28.0576 40.3799 27.2389 41.2668 27.1707ZM67.3119 12.7658C67.5166 12.4247 67.6531 12.2882 67.6531 12.2882C68.8116 14.814 69.2892 19.3198 69.221 25.8048C69.221 29.9694 68.5394 32.0858 67.2437 32.0858C65.6076 31.7446 64.7895 30.3105 64.9253 27.8529C65.0617 26.4195 65.948 24.576 67.5166 22.3231C68.9481 18.9097 68.8798 15.7699 67.3119 12.7658ZM62.8804 28.7406C62.5393 27.7847 62.744 26.8289 63.2209 26.0101C65.2664 22.3231 65.8798 19.1151 65.0617 16.2475C58.1071 18.5686 53.7439 20.6168 51.9713 22.3231C52.2435 22.5967 52.7894 22.7332 53.6074 22.5967C59.5393 21.982 62.948 21.1626 63.9707 20.2756C64.1754 21.1626 63.4256 22.6649 61.653 24.576C60.8349 25.4636 59.471 25.873 57.8349 26.3513C54.7666 27.1707 45.903 33.0416 52.1078 33.1781C58.653 33.1099 62.4711 32.4951 63.562 31.1981C63.6303 30.6523 63.2891 29.9011 62.8804 28.7406ZM52.6529 21.982C52.6529 22.1184 52.5847 22.2549 52.5847 22.2549C56.1299 21.7091 63.0844 21.982 62.6075 17.5445C62.4028 17.5445 62.3346 17.5445 62.3346 17.5445C62.4711 21.6408 55.6529 21.5044 52.6529 21.982ZM46.6529 19.4562C46.994 18.091 47.4709 17.0669 48.1532 16.5204C49.4482 15.3598 51.5619 14.2675 54.562 13.2441C55.1753 13.0388 55.9941 12.0153 57.0844 10.1718C56.6757 10.5812 56.3346 11.0595 55.9259 11.5371C55.4483 12.0836 54.562 12.4247 53.4028 12.7658C49.9258 13.9946 47.1305 15.6334 46.6529 19.4562ZM5.33473 12.7658C5.13004 12.4929 4.99426 12.2882 4.99426 12.2882C3.83505 14.814 3.35745 19.3198 3.42568 25.8048C3.42568 29.9694 4.10729 32.0858 5.40296 32.0858C7.03909 31.7446 7.85783 30.3105 7.72137 27.8529C7.58492 26.4195 6.69862 24.576 5.13004 22.3231C3.69859 18.9097 3.76682 15.7699 5.33473 12.7658ZM9.76688 28.7406C10.1073 27.7847 9.90333 26.8289 9.42574 26.0101C7.38023 22.3231 6.76685 19.1151 7.58492 16.2475C14.5395 18.5686 18.9028 20.6168 20.676 22.3231C20.3349 22.5967 19.8573 22.7332 19.0392 22.5967C13.1074 21.982 9.69865 21.1626 8.6759 20.2756C8.47121 21.1626 9.22105 22.6649 10.9936 24.576C11.8124 25.4636 13.1756 25.873 14.8124 26.3513C18.3576 27.3753 26.4714 33.0416 20.5396 33.1781C13.9937 33.1099 10.1756 32.4951 9.15282 31.1981C9.01637 30.6523 9.35751 29.9011 9.76688 28.7406ZM19.9937 21.982C19.9937 22.1184 19.9937 22.2549 19.9937 22.2549C16.4485 21.7091 9.56219 21.982 9.97089 17.5445C10.1756 17.5445 10.2438 17.5445 10.2438 17.5445C10.2438 21.6408 16.9937 21.5044 19.9937 21.982ZM25.9938 19.4562C25.6526 18.091 25.1757 17.0669 24.4941 16.5204C23.1984 15.3598 21.0847 14.2675 18.0847 13.2441C17.4713 13.0388 16.6532 12.0153 15.5623 10.1718C15.971 10.5812 16.3121 11.0595 16.7215 11.5371C17.1984 12.0836 18.0847 12.4247 19.2439 12.7658C22.7208 13.9946 25.5169 15.6334 25.9938 19.4562Z" fill="#E6E6E6"/>
<path d="M89.7432 21.8974C89.7432 21.5724 89.822 21.3212 89.9796 21.1439C90.1471 20.9567 90.3342 20.8631 90.5411 20.8631C90.7578 20.8631 90.945 20.9419 91.1026 21.0995C91.27 21.2473 91.3439 21.4788 91.3242 21.794C91.2257 23.7839 90.6888 25.3846 89.7136 26.5963C88.7778 27.7587 87.6056 28.3399 86.1969 28.3399C83.5372 28.3399 81.8182 26.35 81.04 22.3703C80.7445 20.9025 80.5967 19.1737 80.5967 17.1839C80.5967 15.1841 80.7199 13.4061 80.9661 11.8497C81.2124 10.2834 81.5867 8.92398 82.0891 7.77144C83.1629 5.30875 84.6897 4.0774 86.6697 4.0774C88.2065 4.0774 89.3442 4.68323 90.083 5.89487C90.8612 7.18532 91.2503 9.29339 91.2503 12.2191C91.2503 12.5441 91.1765 12.7904 91.0287 12.9579C90.8809 13.1155 90.7036 13.1943 90.4968 13.1943C90.0436 13.1943 89.8171 12.9086 89.8171 12.3373C89.8171 8.69249 89.2359 6.5204 88.0735 5.82099C87.6597 5.57472 87.177 5.45159 86.6254 5.45159C86.0738 5.45159 85.5763 5.6092 85.133 5.92442C84.6996 6.2298 84.3105 6.65831 83.9657 7.20995C83.6308 7.75174 83.3402 8.39697 83.0939 9.14563C82.8476 9.88443 82.6457 10.6823 82.4881 11.5394C82.1729 13.2731 82.0152 14.9871 82.0152 16.6815C82.0152 18.3659 82.0694 19.7204 82.1778 20.7449C82.2861 21.7595 82.4388 22.6313 82.6358 23.3603C82.8329 24.0794 83.0644 24.6704 83.3303 25.1334C83.6061 25.5866 83.9066 25.9461 84.2317 26.2121C84.7833 26.6751 85.4876 26.9066 86.3447 26.9066C87.3002 26.9066 88.0833 26.5175 88.6941 25.7392C89.4132 24.8428 89.7629 23.5622 89.7432 21.8974ZM100.16 24.9709C100.151 24.4291 100.151 23.7642 100.16 22.9761C99.7368 22.8283 99.1999 22.7545 98.5498 22.7545C97.673 22.7545 96.9539 22.9663 96.3924 23.3898C96.1166 23.6066 95.895 23.8725 95.7275 24.1878C95.5601 24.4931 95.4763 24.8921 95.4763 25.3846C95.4763 25.8673 95.6438 26.2712 95.9787 26.5963C96.3136 26.9213 96.8062 27.0839 97.4563 27.0839C98.1065 27.0839 98.8305 26.6406 99.6284 25.754C99.855 25.5078 100.032 25.2467 100.16 24.9709ZM101.106 28.3103C100.515 28.3103 100.219 27.8621 100.219 26.9657C100.219 26.9066 100.215 26.7391 100.205 26.4633C100.116 26.5716 100.018 26.6898 99.9092 26.8179C99.0226 27.8227 98.0572 28.3251 97.013 28.3251C96.1757 28.3251 95.4812 28.0591 94.9296 27.5272C94.3583 26.9755 94.0726 26.2712 94.0726 25.4142C94.0726 24.2222 94.5356 23.2618 95.4615 22.5328C95.8753 22.2077 96.3383 21.9615 96.8505 21.794C97.3726 21.6266 97.9538 21.5428 98.5941 21.5428C99.126 21.5428 99.6481 21.6315 100.16 21.8088V20.2425C100.16 19.3757 99.9781 18.7255 99.6136 18.2921C99.259 17.8586 98.8896 17.6419 98.5054 17.6419C98.1213 17.6419 97.806 17.6912 97.5598 17.7897C97.3233 17.8882 97.1115 18.031 96.9244 18.2182C96.5107 18.6221 96.2742 19.1245 96.2151 19.7254C96.2447 20.0406 96.1807 20.2622 96.023 20.3903C95.8654 20.5085 95.693 20.5676 95.5059 20.5676C94.9739 20.5676 94.7178 20.213 94.7375 19.5037C94.7572 18.7649 95.1315 18.0852 95.8605 17.4646C96.6092 16.8243 97.4465 16.5042 98.3724 16.5042C99.7516 16.5042 100.682 17.1888 101.165 18.558C101.333 19.0506 101.416 19.5924 101.416 20.1834V21.7054L101.402 24.1878V25.5028C101.402 26.0939 101.471 26.5716 101.608 26.9361C101.756 27.3006 101.83 27.5616 101.83 27.7193C101.83 27.867 101.756 28 101.608 28.1182C101.461 28.2463 101.293 28.3103 101.106 28.3103ZM111.139 17.3464C111.139 17.8783 110.873 18.1837 110.341 18.2625C109.691 18.3906 108.957 18.9471 108.139 19.9322C107.263 20.9961 106.77 22.0452 106.662 23.0795C106.622 23.5327 106.603 23.9464 106.603 24.3207C106.603 25.2172 106.642 26.1579 106.721 27.143C106.741 27.4681 106.657 27.7143 106.47 27.8818C106.292 28.0493 106.095 28.133 105.879 28.133C105.672 28.133 105.49 28.0591 105.332 27.9113C105.174 27.7537 105.11 27.5222 105.14 27.2169C105.169 26.9016 105.194 26.5421 105.214 26.1382C105.234 25.7245 105.253 25.291 105.273 24.8379C105.293 24.0695 105.302 23.2125 105.302 22.2669C105.302 20.671 105.283 19.4889 105.243 18.7206C105.204 17.9424 105.209 17.4942 105.258 17.3759C105.307 17.2577 105.371 17.1642 105.45 17.0952C105.618 16.9376 105.8 16.8588 105.997 16.8588C106.204 16.8588 106.386 16.9327 106.544 17.0804C106.711 17.2282 106.785 17.4203 106.765 17.6567C106.755 17.8833 106.736 18.1098 106.706 18.3364C106.686 18.5531 106.662 18.824 106.632 19.1491C106.573 19.6712 106.519 20.2277 106.47 20.8188C106.874 19.8042 107.45 18.8683 108.199 18.0113C109.036 17.0755 109.765 16.6076 110.385 16.6076C110.651 16.6076 110.844 16.6815 110.962 16.8292C111.08 16.977 111.139 17.1494 111.139 17.3464ZM113.533 4.09218L116.444 4.22517C117.271 4.22517 117.911 4.21532 118.365 4.19561C118.828 4.17591 119.192 4.16114 119.458 4.15129C119.724 4.14143 119.995 4.11188 120.271 4.06263C120.547 4.01337 120.813 4.0577 121.069 4.19561C121.325 4.32367 121.453 4.60935 121.453 5.05263C121.453 5.48606 120.906 7.08681 119.813 9.85488C118.729 12.6131 117.985 14.4946 117.581 15.4994C117.187 16.4943 116.798 17.4843 116.414 18.4694C116.03 19.4446 115.661 20.3854 115.306 21.2916C114.951 22.1979 114.631 23.0303 114.345 23.7888C113.843 25.1679 113.508 26.1431 113.341 26.7145L113.74 26.6997H113.902C116.257 26.6997 118.301 26.616 120.034 26.4485C120.379 26.419 120.635 26.4928 120.803 26.6701C120.98 26.8475 121.069 27.0395 121.069 27.2464C121.069 27.4533 120.985 27.6552 120.817 27.8522C120.65 28.0394 120.404 28.1182 120.079 28.0887C119.507 28.0493 118.867 28.0296 118.158 28.0296C117.458 28.0296 116.867 28.0246 116.385 28.0148C115.902 28.0049 115.429 28 114.966 28C113.863 27.9803 113.198 27.9852 112.971 28.0148C112.755 28.0542 112.582 28.0542 112.454 28.0148C112.336 27.9852 112.228 27.931 112.129 27.8522C111.893 27.6454 111.794 27.3991 111.834 27.1134C111.883 26.8179 112.016 26.3746 112.232 25.7836C112.449 25.1827 112.73 24.4586 113.075 23.6115C113.42 22.7643 113.809 21.8186 114.242 20.7745C114.675 19.7303 115.124 18.6467 115.587 17.5237C116.06 16.3909 116.522 15.2482 116.976 14.0956C117.439 12.9332 117.862 11.8152 118.246 10.7415C119.034 8.57428 119.557 6.86517 119.813 5.61412C119.271 5.59442 118.532 5.58457 117.596 5.58457C115.794 5.58457 114.572 5.59935 113.932 5.6289C112.927 5.68801 112.425 5.45651 112.425 4.93442C112.425 4.70785 112.523 4.51084 112.72 4.34338C112.917 4.17591 113.188 4.09218 113.533 4.09218ZM129.269 18.0556C128.944 17.8192 128.56 17.701 128.117 17.701C127.683 17.701 127.284 17.8242 126.92 18.0704C126.565 18.3068 126.265 18.6418 126.019 19.0752C125.516 19.9421 125.265 21.134 125.265 22.651C125.265 24.1582 125.506 25.2713 125.989 25.9904C126.472 26.7095 127.117 27.0691 127.925 27.0691C128.811 27.0691 129.521 26.5618 130.053 25.5472C130.525 24.6409 130.762 23.5278 130.762 22.2077C130.762 20.1785 130.264 18.7945 129.269 18.0556ZM127.91 28.3251C127.348 28.3349 126.821 28.2216 126.329 27.9852C125.846 27.739 125.428 27.3597 125.073 26.8475C124.295 25.7639 123.906 24.2222 123.906 22.2225C123.906 20.4297 124.324 19.0161 125.162 17.9818C125.95 16.9967 126.994 16.5042 128.294 16.5042C129.388 16.5042 130.294 16.977 131.013 17.9227C131.752 18.9274 132.121 20.3065 132.121 22.06C132.121 24.0104 131.693 25.5669 130.836 26.7293C130.067 27.7734 129.092 28.3054 127.91 28.3251ZM142.657 20.8336L142.627 24.0252C142.627 25.0792 142.662 26.0643 142.73 26.9804C142.75 27.3154 142.666 27.5666 142.479 27.734C142.302 27.8916 142.11 27.9704 141.903 27.9704C141.706 27.9704 141.524 27.8966 141.356 27.7488C141.199 27.5912 141.135 27.3597 141.164 27.0543C141.204 26.7391 141.233 26.3795 141.253 25.9757C141.282 25.5718 141.307 25.1531 141.327 24.7197C141.366 23.8528 141.386 23.1386 141.386 22.5772C141.386 22.0058 141.376 21.5921 141.356 21.336C141.337 21.0798 141.317 20.7006 141.297 20.1982C141.277 19.6859 141.144 19.2082 140.898 18.7649C140.652 18.3118 140.307 18.0852 139.864 18.0852C139.421 18.0852 139.036 18.1788 138.711 18.3659C138.386 18.5531 138.086 18.7994 137.81 19.1048C137.249 19.7648 136.874 20.5331 136.687 21.4098C136.677 21.6857 136.672 21.9566 136.672 22.2225V22.9909C136.672 24.7739 136.692 25.956 136.731 26.5372C136.771 27.1085 136.736 27.4927 136.628 27.6897C136.52 27.8769 136.327 27.9704 136.052 27.9704C135.786 27.9704 135.574 27.8867 135.416 27.7193C135.269 27.5419 135.209 27.2218 135.239 26.7588C135.337 25.4881 135.387 24.1828 135.387 22.8431C135.387 20.5479 135.352 18.8634 135.283 17.7897C135.244 17.1297 135.52 16.7997 136.111 16.7997C136.416 16.7997 136.608 16.8933 136.687 17.0804C136.776 17.2676 136.805 17.4646 136.776 17.6715C136.756 17.8783 136.741 18.0556 136.731 18.2034C136.731 18.3512 136.731 18.5039 136.731 18.6615C136.731 18.8191 136.731 18.9619 136.731 19.09C137.313 17.9867 138.086 17.2627 139.051 16.9179C139.357 16.8095 139.667 16.7553 139.982 16.7553C140.297 16.7553 140.622 16.8292 140.957 16.977C141.292 17.1149 141.583 17.3464 141.829 17.6715C142.381 18.3807 142.657 19.4348 142.657 20.8336ZM152.099 21.6167C152.118 19.9027 151.759 18.7304 151.02 18.1C150.724 17.834 150.365 17.701 149.941 17.701C149.518 17.701 149.168 17.7798 148.892 17.9374C148.616 18.0951 148.37 18.3068 148.153 18.5728C147.946 18.8388 147.769 19.1442 147.621 19.4889C147.483 19.8239 147.37 20.1686 147.282 20.5233C147.193 20.8976 147.129 21.267 147.089 21.6315L149.114 21.7201C150.434 21.7201 151.429 21.6857 152.099 21.6167ZM147.03 22.9022C147.05 24.2616 147.296 25.3009 147.769 26.02C148.281 26.7884 149.005 27.1725 149.941 27.1725C150.798 27.1725 151.424 26.749 151.818 25.9018C152.064 25.3501 152.369 25.0743 152.734 25.0743C152.901 25.0743 153.039 25.1285 153.148 25.2369C153.266 25.3452 153.32 25.5373 153.31 25.8131C153.3 26.0791 153.202 26.3697 153.015 26.6849C152.837 27.0001 152.586 27.2809 152.261 27.5272C151.552 28.0788 150.7 28.3546 149.705 28.3546C148.631 28.3546 147.705 27.8966 146.927 26.9804C146.109 26.0151 145.7 24.8675 145.7 23.5376C145.7 22.2077 145.814 21.1291 146.04 20.3016C146.277 19.4643 146.587 18.7698 146.971 18.2182C147.72 17.105 148.656 16.5485 149.779 16.5485C151.217 16.5485 152.227 17.1149 152.808 18.2477C153.212 19.0358 153.428 20.1933 153.458 21.7201C153.468 22.1536 153.399 22.4442 153.251 22.5919C153.103 22.7397 152.803 22.8136 152.35 22.8136L147.03 22.9022Z" fill="white"/>
</svg>
