<svg width="98" height="33" viewBox="0 0 98 33" fill="none" xmlns="http://www.w3.org/2000/svg">
<path d="M12.9648 23.9336C12.9648 23.5039 13.069 23.1719 13.2773 22.9375C13.4987 22.6901 13.7461 22.5664 14.0195 22.5664C14.306 22.5664 14.5534 22.6706 14.7617 22.8789C14.9831 23.0742 15.0807 23.3802 15.0547 23.7969C14.9245 26.4271 14.2148 28.543 12.9258 30.1445C11.6888 31.681 10.1393 32.4492 8.27734 32.4492C4.76172 32.4492 2.48958 29.819 1.46094 24.5586C1.07031 22.6185 0.875 20.3333 0.875 17.7031C0.875 15.0599 1.03776 12.7096 1.36328 10.6523C1.6888 8.58203 2.18359 6.78516 2.84766 5.26172C4.26693 2.00651 6.28516 0.378906 8.90234 0.378906C10.9336 0.378906 12.4375 1.17969 13.4141 2.78125C14.4427 4.48698 14.957 7.27344 14.957 11.1406C14.957 11.5703 14.8594 11.8958 14.6641 12.1172C14.4688 12.3255 14.2344 12.4297 13.9609 12.4297C13.362 12.4297 13.0625 12.0521 13.0625 11.2969C13.0625 6.47917 12.2943 3.60807 10.7578 2.68359C10.2109 2.35807 9.57292 2.19531 8.84375 2.19531C8.11458 2.19531 7.45703 2.40365 6.87109 2.82031C6.29818 3.22396 5.78385 3.79036 5.32812 4.51953C4.88542 5.23568 4.5013 6.08854 4.17578 7.07812C3.85026 8.05469 3.58333 9.10938 3.375 10.2422C2.95833 12.5339 2.75 14.7995 2.75 17.0391C2.75 19.2656 2.82161 21.056 2.96484 22.4102C3.10807 23.7513 3.3099 24.9036 3.57031 25.8672C3.83073 26.8177 4.13672 27.599 4.48828 28.2109C4.85286 28.8099 5.25 29.2852 5.67969 29.6367C6.40885 30.2487 7.33984 30.5547 8.47266 30.5547C9.73568 30.5547 10.7708 30.0404 11.5781 29.0117C12.5286 27.8268 12.9909 26.1341 12.9648 23.9336ZM44.4102 0.398438L48.2578 0.574219C49.3516 0.574219 50.1979 0.561198 50.7969 0.535156C51.4089 0.509115 51.8906 0.489583 52.2422 0.476562C52.5938 0.463542 52.9518 0.424479 53.3164 0.359375C53.681 0.294271 54.0326 0.352865 54.3711 0.535156C54.7096 0.704427 54.8789 1.08203 54.8789 1.66797C54.8789 2.24089 54.1562 4.35677 52.7109 8.01562C51.2786 11.6615 50.2956 14.1484 49.7617 15.4766C49.2409 16.7917 48.7266 18.1003 48.2188 19.4023C47.7109 20.6914 47.2227 21.9349 46.7539 23.1328C46.2852 24.3307 45.862 25.431 45.4844 26.4336C44.8203 28.2565 44.3776 29.5456 44.1562 30.3008L44.6836 30.2812H44.8984C48.0104 30.2812 50.7122 30.1706 53.0039 29.9492C53.4596 29.9102 53.7982 30.0078 54.0195 30.2422C54.2539 30.4766 54.3711 30.7305 54.3711 31.0039C54.3711 31.2773 54.2604 31.5443 54.0391 31.8047C53.8177 32.0521 53.4922 32.1562 53.0625 32.1172C52.3073 32.0651 51.4609 32.0391 50.5234 32.0391C49.599 32.0391 48.8177 32.0326 48.1797 32.0195C47.5417 32.0065 46.9167 32 46.3047 32C44.8464 31.974 43.9674 31.9805 43.668 32.0195C43.3815 32.0716 43.1536 32.0716 42.9844 32.0195C42.8281 31.9805 42.6849 31.9089 42.5547 31.8047C42.2422 31.5312 42.112 31.2057 42.1641 30.8281C42.2292 30.4375 42.4049 29.8516 42.6914 29.0703C42.9779 28.276 43.349 27.319 43.8047 26.1992C44.2604 25.0794 44.7747 23.8294 45.3477 22.4492C45.9206 21.069 46.513 19.6367 47.125 18.1523C47.75 16.6549 48.362 15.1445 48.9609 13.6211C49.5729 12.0846 50.1328 10.6068 50.6406 9.1875C51.6823 6.32292 52.3724 4.0638 52.7109 2.41016C51.9948 2.38411 51.0182 2.37109 49.7812 2.37109C47.3984 2.37109 45.7839 2.39062 44.9375 2.42969C43.6094 2.50781 42.9453 2.20182 42.9453 1.51172C42.9453 1.21224 43.0755 0.951823 43.3359 0.730469C43.5964 0.509115 43.9544 0.398438 44.4102 0.398438Z" fill="#8F0C1F"/>
<path d="M26.7344 27.9961C26.7214 27.2799 26.7214 26.401 26.7344 25.3594C26.1745 25.1641 25.4648 25.0664 24.6055 25.0664C23.4466 25.0664 22.4961 25.3464 21.7539 25.9062C21.3893 26.1927 21.0964 26.5443 20.875 26.9609C20.6536 27.3646 20.543 27.8919 20.543 28.543C20.543 29.181 20.7643 29.7148 21.207 30.1445C21.6497 30.5742 22.3008 30.7891 23.1602 30.7891C24.0195 30.7891 24.9766 30.2031 26.0312 29.0312C26.3307 28.7057 26.5651 28.3607 26.7344 27.9961ZM27.9844 32.4102C27.2031 32.4102 26.8125 31.8177 26.8125 30.6328C26.8125 30.5547 26.806 30.3333 26.793 29.9688C26.6758 30.112 26.5456 30.2682 26.4023 30.4375C25.2305 31.7656 23.9544 32.4297 22.5742 32.4297C21.4674 32.4297 20.5495 32.0781 19.8203 31.375C19.0651 30.6458 18.6875 29.7148 18.6875 28.582C18.6875 27.0065 19.2995 25.737 20.5234 24.7734C21.0703 24.3438 21.6823 24.0182 22.3594 23.7969C23.0495 23.5755 23.8177 23.4648 24.6641 23.4648C25.3672 23.4648 26.0573 23.582 26.7344 23.8164V21.7461C26.7344 20.6003 26.4935 19.7409 26.0117 19.168C25.543 18.5951 25.0547 18.3086 24.5469 18.3086C24.0391 18.3086 23.6224 18.3737 23.2969 18.5039C22.9844 18.6341 22.7044 18.8229 22.457 19.0703C21.9102 19.6042 21.5977 20.2682 21.5195 21.0625C21.5586 21.4792 21.474 21.7721 21.2656 21.9414C21.0573 22.0977 20.8294 22.1758 20.582 22.1758C19.8789 22.1758 19.5404 21.707 19.5664 20.7695C19.5924 19.793 20.0872 18.8945 21.0508 18.0742C22.0404 17.2279 23.1471 16.8047 24.3711 16.8047C26.194 16.8047 27.4245 17.7096 28.0625 19.5195C28.2839 20.1706 28.3945 20.8867 28.3945 21.668V23.6797L28.375 26.9609V28.6992C28.375 29.4805 28.4661 30.112 28.6484 30.5938C28.8438 31.0755 28.9414 31.4206 28.9414 31.6289C28.9414 31.8242 28.8438 32 28.6484 32.1562C28.4531 32.3255 28.2318 32.4102 27.9844 32.4102ZM41.2461 17.918C41.2461 18.6211 40.8945 19.0247 40.1914 19.1289C39.332 19.2982 38.362 20.0339 37.2812 21.3359C36.1224 22.7422 35.4714 24.1289 35.3281 25.4961C35.276 26.0951 35.25 26.6419 35.25 27.1367C35.25 28.3216 35.3021 29.5651 35.4062 30.8672C35.4323 31.2969 35.3216 31.6224 35.0742 31.8438C34.8398 32.0651 34.5794 32.1758 34.293 32.1758C34.0195 32.1758 33.7786 32.0781 33.5703 31.8828C33.362 31.6745 33.2773 31.3685 33.3164 30.9648C33.3555 30.5482 33.388 30.0729 33.4141 29.5391C33.4401 28.9922 33.4661 28.4193 33.4922 27.8203C33.5182 26.8047 33.5312 25.6719 33.5312 24.4219C33.5312 22.3125 33.5052 20.75 33.4531 19.7344C33.401 18.7057 33.4076 18.1133 33.4727 17.957C33.5378 17.8008 33.6224 17.6771 33.7266 17.5859C33.9479 17.3776 34.1888 17.2734 34.4492 17.2734C34.7227 17.2734 34.9635 17.3711 35.1719 17.5664C35.3932 17.7617 35.4909 18.0156 35.4648 18.3281C35.4518 18.6276 35.4258 18.9271 35.3867 19.2266C35.3607 19.513 35.3281 19.8711 35.2891 20.3008C35.2109 20.9909 35.1393 21.7266 35.0742 22.5078C35.6081 21.1667 36.3698 19.9297 37.3594 18.7969C38.4661 17.5599 39.4297 16.9414 40.25 16.9414C40.6016 16.9414 40.8555 17.0391 41.0117 17.2344C41.168 17.4297 41.2461 17.6576 41.2461 17.918ZM65.2109 18.8555C64.7812 18.543 64.2734 18.3867 63.6875 18.3867C63.1146 18.3867 62.5872 18.5495 62.1055 18.875C61.6367 19.1875 61.2396 19.6302 60.9141 20.2031C60.25 21.349 59.918 22.9245 59.918 24.9297C59.918 26.9219 60.237 28.3932 60.875 29.3438C61.513 30.2943 62.3659 30.7695 63.4336 30.7695C64.6055 30.7695 65.543 30.099 66.2461 28.7578C66.8711 27.5599 67.1836 26.0885 67.1836 24.3438C67.1836 21.6615 66.526 19.832 65.2109 18.8555ZM63.4141 32.4297C62.6719 32.4427 61.9753 32.293 61.3242 31.9805C60.6862 31.6549 60.1328 31.1536 59.6641 30.4766C58.6354 29.0443 58.1211 27.0065 58.1211 24.3633C58.1211 21.9935 58.6745 20.125 59.7812 18.7578C60.8229 17.4557 62.2031 16.8047 63.9219 16.8047C65.3672 16.8047 66.5651 17.4297 67.5156 18.6797C68.4922 20.0078 68.9805 21.8307 68.9805 24.1484C68.9805 26.7266 68.4141 28.7839 67.2812 30.3203C66.2656 31.7005 64.9766 32.4036 63.4141 32.4297ZM82.9062 22.5273L82.8672 26.7461C82.8672 28.1393 82.9128 29.4414 83.0039 30.6523C83.0299 31.0951 82.9193 31.4271 82.6719 31.6484C82.4375 31.8568 82.1836 31.9609 81.9102 31.9609C81.6497 31.9609 81.4089 31.8633 81.1875 31.668C80.9792 31.4596 80.8945 31.1536 80.9336 30.75C80.9857 30.3333 81.0247 29.8581 81.0508 29.3242C81.0898 28.7904 81.1224 28.237 81.1484 27.6641C81.2005 26.5182 81.2266 25.5742 81.2266 24.832C81.2266 24.0768 81.2135 23.5299 81.1875 23.1914C81.1615 22.8529 81.1354 22.3516 81.1094 21.6875C81.0833 21.0104 80.9076 20.3789 80.582 19.793C80.2565 19.194 79.8008 18.8945 79.2148 18.8945C78.6289 18.8945 78.1211 19.0182 77.6914 19.2656C77.2617 19.513 76.8646 19.8385 76.5 20.2422C75.7578 21.1146 75.263 22.1302 75.0156 23.2891C75.0026 23.6536 74.9961 24.0117 74.9961 24.3633V25.3789C74.9961 27.7357 75.0221 29.2982 75.0742 30.0664C75.1263 30.8216 75.0807 31.3294 74.9375 31.5898C74.7943 31.8372 74.5404 31.9609 74.1758 31.9609C73.8242 31.9609 73.5443 31.8503 73.3359 31.6289C73.1406 31.3945 73.0625 30.9714 73.1016 30.3594C73.2318 28.6797 73.2969 26.9544 73.2969 25.1836C73.2969 22.1497 73.2513 19.9232 73.1602 18.5039C73.1081 17.6315 73.4727 17.1953 74.2539 17.1953C74.6576 17.1953 74.9115 17.319 75.0156 17.5664C75.1328 17.8138 75.1719 18.0742 75.1328 18.3477C75.1068 18.6211 75.0872 18.8555 75.0742 19.0508C75.0742 19.2461 75.0742 19.4479 75.0742 19.6562C75.0742 19.8646 75.0742 20.0534 75.0742 20.2227C75.8424 18.7643 76.8646 17.8073 78.1406 17.3516C78.5443 17.2083 78.9544 17.1367 79.3711 17.1367C79.7878 17.1367 80.2174 17.2344 80.6602 17.4297C81.1029 17.612 81.487 17.918 81.8125 18.3477C82.5417 19.2852 82.9062 20.6784 82.9062 22.5273ZM95.3867 23.5625C95.4128 21.2969 94.9375 19.7474 93.9609 18.9141C93.5703 18.5625 93.0951 18.3867 92.5352 18.3867C91.9753 18.3867 91.513 18.4909 91.1484 18.6992C90.7839 18.9076 90.4583 19.1875 90.1719 19.5391C89.8984 19.8906 89.6641 20.2943 89.4688 20.75C89.2865 21.1927 89.1367 21.6484 89.0195 22.1172C88.9023 22.612 88.8177 23.1003 88.7656 23.582L91.4414 23.6992C93.1862 23.6992 94.5013 23.6536 95.3867 23.5625ZM88.6875 25.2617C88.7135 27.0586 89.0391 28.4323 89.6641 29.3828C90.3411 30.3984 91.2982 30.9062 92.5352 30.9062C93.668 30.9062 94.4948 30.3464 95.0156 29.2266C95.3411 28.4974 95.7448 28.1328 96.2266 28.1328C96.4479 28.1328 96.6302 28.2044 96.7734 28.3477C96.9297 28.4909 97.0013 28.7448 96.9883 29.1094C96.9753 29.4609 96.8451 29.8451 96.5977 30.2617C96.3633 30.6784 96.0312 31.0495 95.6016 31.375C94.6641 32.1042 93.5378 32.4688 92.2227 32.4688C90.8034 32.4688 89.5794 31.8633 88.5508 30.6523C87.4701 29.3763 86.9297 27.8594 86.9297 26.1016C86.9297 24.3438 87.0794 22.918 87.3789 21.8242C87.6914 20.7174 88.1016 19.7995 88.6094 19.0703C89.599 17.599 90.8359 16.8633 92.3203 16.8633C94.2214 16.8633 95.556 17.612 96.3242 19.1094C96.8581 20.151 97.1445 21.681 97.1836 23.6992C97.1966 24.2721 97.1055 24.6562 96.9102 24.8516C96.7148 25.0469 96.3177 25.1445 95.7188 25.1445L88.6875 25.2617Z" fill="#262626"/>
</svg>
