<svg width="27" height="28" viewBox="0 0 27 28" fill="none" xmlns="http://www.w3.org/2000/svg">
<path d="M15.8486 13.0633H9.16606M11.3936 17.5183H9.16606M18.0761 8.6083H9.16606M22.5311 8.38555V19.9686C22.5311 21.8398 22.5311 22.7755 22.1669 23.4902C21.8465 24.1189 21.3354 24.63 20.7067 24.9504C19.992 25.3146 19.0563 25.3146 17.1851 25.3146H10.0571C8.18578 25.3146 7.25015 25.3146 6.53541 24.9504C5.90672 24.63 5.39557 24.1189 5.07523 23.4902C4.71106 22.7755 4.71106 21.8398 4.71106 19.9686V8.38555C4.71106 6.51428 4.71106 5.57864 5.07523 4.8639C5.39557 4.23521 5.90672 3.72406 6.53541 3.40373C7.25015 3.03955 8.18578 3.03955 10.0571 3.03955H17.1851C19.0563 3.03955 19.992 3.03955 20.7067 3.40373C21.3354 3.72406 21.8465 4.23521 22.1669 4.8639C22.5311 5.57864 22.5311 6.51428 22.5311 8.38555Z" stroke="#666666" stroke-width="1.4" stroke-linecap="round" stroke-linejoin="round"/>
</svg>
