<svg width="27" height="28" viewBox="0 0 27 28" fill="none" xmlns="http://www.w3.org/2000/svg">
<path d="M2.48389 8.14619L11.5786 14.5125C12.315 15.028 12.6833 15.2858 13.0838 15.3856C13.4376 15.4738 13.8076 15.4738 14.1614 15.3856C14.562 15.2858 14.9302 15.028 15.6667 14.5125L24.7614 8.14619M7.83048 22.6265H19.4148C21.2863 22.6265 22.222 22.6265 22.9368 22.2623C23.5656 21.942 24.0768 21.4308 24.3971 20.802C24.7614 20.0872 24.7614 19.1514 24.7614 17.28V10.1512C24.7614 8.27968 24.7614 7.34393 24.3971 6.62912C24.0768 6.00036 23.5656 5.48915 22.9368 5.16878C22.222 4.80457 21.2863 4.80457 19.4148 4.80457H7.83048C5.959 4.80457 5.02326 4.80457 4.30844 5.16878C3.67968 5.48915 3.16847 6.00036 2.8481 6.62912C2.48389 7.34393 2.48389 8.27968 2.48389 10.1512V17.28C2.48389 19.1514 2.48389 20.0872 2.8481 20.802C3.16847 21.4308 3.67968 21.942 4.30844 22.2623C5.02326 22.6265 5.959 22.6265 7.83048 22.6265Z" stroke="#666666" stroke-width="1.21514" stroke-linecap="round" stroke-linejoin="round"/>
</svg>
