<svg width="27" height="28" viewBox="0 0 27 28" fill="none" xmlns="http://www.w3.org/2000/svg">
<path d="M9.44422 22.2599V25.6012M4.43234 2.2124H14.4561C14.8992 2.2124 15.3241 2.38841 15.6374 2.70172C15.9507 3.01502 16.1267 3.43995 16.1267 3.88303V25.3923C16.1267 25.4477 16.1047 25.5008 16.0656 25.54C16.0264 25.5792 15.9733 25.6012 15.9179 25.6012H2.76172V3.88303C2.76172 3.43995 2.93773 3.01502 3.25103 2.70172C3.56434 2.38841 3.98927 2.2124 4.43234 2.2124ZM16.962 10.5655H22.8092C23.2523 10.5655 23.6772 10.7415 23.9905 11.0548C24.3038 11.3681 24.4798 11.7931 24.4798 12.2362V25.6012H16.1267V11.4008C16.1267 11.1793 16.2147 10.9668 16.3714 10.8102C16.528 10.6535 16.7405 10.5655 16.962 10.5655Z" stroke="#666666" stroke-width="1.2" stroke-linecap="round" stroke-linejoin="round"/>
<path d="M5.3765 23.0886C5.2035 23.1112 5.02776 23.0791 4.87394 22.9967C4.72012 22.9144 4.59595 22.786 4.51885 22.6294C4.44175 22.4729 4.41559 22.2962 4.44405 22.1241C4.47251 21.9519 4.55415 21.793 4.67752 21.6697C4.80089 21.5463 4.95979 21.4646 5.13193 21.4362C5.30407 21.4077 5.48079 21.4339 5.6373 21.511C5.79382 21.5881 5.92226 21.7123 6.0046 21.8661C6.08695 22.0199 6.11906 22.1956 6.09643 22.3686C6.07256 22.5512 5.98903 22.7208 5.85883 22.851C5.72863 22.9812 5.55907 23.0647 5.3765 23.0886ZM5.3765 18.912C5.2035 18.9346 5.02776 18.9025 4.87394 18.8202C4.72012 18.7378 4.59595 18.6094 4.51885 18.4529C4.44175 18.2964 4.41559 18.1196 4.44405 17.9475C4.47251 17.7754 4.55415 17.6165 4.67752 17.4931C4.80089 17.3697 4.95979 17.2881 5.13193 17.2596C5.30407 17.2312 5.48079 17.2573 5.6373 17.3344C5.79382 17.4115 5.92226 17.5357 6.0046 17.6895C6.08695 17.8433 6.11906 18.0191 6.09643 18.1921C6.07256 18.3746 5.98903 18.5442 5.85883 18.6744C5.72863 18.8046 5.55907 18.8881 5.3765 18.912ZM5.3765 14.7354C5.2035 14.7581 5.02776 14.726 4.87394 14.6436C4.72012 14.5613 4.59595 14.4328 4.51885 14.2763C4.44175 14.1198 4.41559 13.9431 4.44405 13.7709C4.47251 13.5988 4.55415 13.4399 4.67752 13.3165C4.80089 13.1932 4.95979 13.1115 5.13193 13.0831C5.30407 13.0546 5.48079 13.0808 5.6373 13.1579C5.79382 13.235 5.92226 13.3591 6.0046 13.513C6.08695 13.6668 6.11906 13.8425 6.09643 14.0155C6.07256 14.1981 5.98903 14.3676 5.85883 14.4978C5.72863 14.628 5.55907 14.7116 5.3765 14.7354ZM5.3765 10.5589C5.2035 10.5815 5.02776 10.5494 4.87394 10.4671C4.72012 10.3847 4.59595 10.2563 4.51885 10.0998C4.44175 9.94324 4.41559 9.76652 4.44405 9.59438C4.47251 9.42225 4.55415 9.26334 4.67752 9.13997C4.80089 9.0166 4.95979 8.93496 5.13193 8.9065C5.30407 8.87804 5.48079 8.9042 5.6373 8.9813C5.79382 9.0584 5.92226 9.18257 6.0046 9.33639C6.08695 9.49021 6.11906 9.66595 6.09643 9.83895C6.07256 10.0215 5.98903 10.1911 5.85883 10.3213C5.72863 10.4515 5.55907 10.535 5.3765 10.5589ZM5.3765 6.38232C5.2035 6.40495 5.02776 6.37284 4.87394 6.29049C4.72012 6.20815 4.59595 6.07971 4.51885 5.92319C4.44175 5.76668 4.41559 5.58995 4.44405 5.41782C4.47251 5.24568 4.55415 5.08678 4.67752 4.96341C4.80089 4.84004 4.95979 4.75839 5.13193 4.72994C5.30407 4.70148 5.48079 4.72764 5.6373 4.80474C5.79382 4.88184 5.92226 5.00601 6.0046 5.15983C6.08695 5.31365 6.11906 5.48939 6.09643 5.66239C6.07256 5.84496 5.98903 6.01452 5.85883 6.14472C5.72863 6.27491 5.55907 6.35844 5.3765 6.38232ZM9.55306 18.912C9.38006 18.9346 9.20432 18.9025 9.0505 18.8202C8.89668 18.7378 8.77251 18.6094 8.69541 18.4529C8.61831 18.2964 8.59215 18.1196 8.62061 17.9475C8.64907 17.7754 8.73071 17.6165 8.85408 17.4931C8.97745 17.3697 9.13636 17.2881 9.30849 17.2596C9.48063 17.2312 9.65735 17.2573 9.81387 17.3344C9.97038 17.4115 10.0988 17.5357 10.1812 17.6895C10.2635 17.8433 10.2956 18.0191 10.273 18.1921C10.2491 18.3746 10.1656 18.5442 10.0354 18.6744C9.9052 18.8046 9.73563 18.8881 9.55306 18.912ZM9.55306 14.7354C9.38006 14.7581 9.20432 14.726 9.0505 14.6436C8.89668 14.5613 8.77251 14.4328 8.69541 14.2763C8.61831 14.1198 8.59215 13.9431 8.62061 13.7709C8.64907 13.5988 8.73071 13.4399 8.85408 13.3165C8.97745 13.1932 9.13636 13.1115 9.30849 13.0831C9.48063 13.0546 9.65735 13.0808 9.81387 13.1579C9.97038 13.235 10.0988 13.3591 10.1812 13.513C10.2635 13.6668 10.2956 13.8425 10.273 14.0155C10.2491 14.1981 10.1656 14.3676 10.0354 14.4978C9.9052 14.628 9.73563 14.7116 9.55306 14.7354ZM9.55306 10.5589C9.38006 10.5815 9.20432 10.5494 9.0505 10.4671C8.89668 10.3847 8.77251 10.2563 8.69541 10.0998C8.61831 9.94324 8.59215 9.76652 8.62061 9.59438C8.64907 9.42225 8.73071 9.26334 8.85408 9.13997C8.97745 9.0166 9.13636 8.93496 9.30849 8.9065C9.48063 8.87804 9.65735 8.9042 9.81387 8.9813C9.97038 9.0584 10.0988 9.18257 10.1812 9.33639C10.2635 9.49021 10.2956 9.66595 10.273 9.83895C10.2491 10.0215 10.1656 10.1911 10.0354 10.3213C9.9052 10.4515 9.73563 10.535 9.55306 10.5589ZM9.55306 6.38232C9.38006 6.40495 9.20432 6.37284 9.0505 6.29049C8.89668 6.20815 8.77251 6.07971 8.69541 5.92319C8.61831 5.76668 8.59215 5.58995 8.62061 5.41782C8.64907 5.24568 8.73071 5.08678 8.85408 4.96341C8.97745 4.84004 9.13636 4.75839 9.30849 4.72994C9.48063 4.70148 9.65735 4.72764 9.81387 4.80474C9.97038 4.88184 10.0988 5.00601 10.1812 5.15983C10.2635 5.31365 10.2956 5.48939 10.273 5.66239C10.2491 5.84496 10.1656 6.01452 10.0354 6.14472C9.9052 6.27491 9.73563 6.35844 9.55306 6.38232ZM13.7296 23.0886C13.5566 23.1112 13.3809 23.0791 13.2271 22.9967C13.0732 22.9144 12.9491 22.786 12.872 22.6294C12.7949 22.4729 12.7687 22.2962 12.7972 22.1241C12.8256 21.9519 12.9073 21.793 13.0306 21.6697C13.154 21.5463 13.3129 21.4646 13.4851 21.4362C13.6572 21.4077 13.8339 21.4339 13.9904 21.511C14.1469 21.5881 14.2754 21.7123 14.3577 21.8661C14.4401 22.0199 14.4722 22.1956 14.4496 22.3686C14.4257 22.5512 14.3422 22.7208 14.212 22.851C14.0818 22.9812 13.9122 23.0647 13.7296 23.0886ZM13.7296 18.912C13.5566 18.9346 13.3809 18.9025 13.2271 18.8202C13.0732 18.7378 12.9491 18.6094 12.872 18.4529C12.7949 18.2964 12.7687 18.1196 12.7972 17.9475C12.8256 17.7754 12.9073 17.6165 13.0306 17.4931C13.154 17.3697 13.3129 17.2881 13.4851 17.2596C13.6572 17.2312 13.8339 17.2573 13.9904 17.3344C14.1469 17.4115 14.2754 17.5357 14.3577 17.6895C14.4401 17.8433 14.4722 18.0191 14.4496 18.1921C14.4257 18.3746 14.3422 18.5442 14.212 18.6744C14.0818 18.8046 13.9122 18.8881 13.7296 18.912ZM13.7296 14.7354C13.5566 14.7581 13.3809 14.726 13.2271 14.6436C13.0732 14.5613 12.9491 14.4328 12.872 14.2763C12.7949 14.1198 12.7687 13.9431 12.7972 13.7709C12.8256 13.5988 12.9073 13.4399 13.0306 13.3165C13.154 13.1932 13.3129 13.1115 13.4851 13.0831C13.6572 13.0546 13.8339 13.0808 13.9904 13.1579C14.1469 13.235 14.2754 13.3591 14.3577 13.513C14.4401 13.6668 14.4722 13.8425 14.4496 14.0155C14.4257 14.1981 14.3422 14.3676 14.212 14.4978C14.0818 14.628 13.9122 14.7116 13.7296 14.7354Z" fill="#666666"/>
<path d="M14.2129 10.3199C14.5381 9.99475 14.5368 9.46618 14.2099 9.13936C13.8831 8.81254 13.3546 8.81122 13.0294 9.13641C12.7042 9.4616 12.7055 9.99016 13.0323 10.317C13.3591 10.6438 13.8877 10.6451 14.2129 10.3199Z" fill="#666666"/>
<path d="M13.7294 6.38232C13.5564 6.40495 13.3807 6.37284 13.2268 6.29049C13.073 6.20815 12.9489 6.07971 12.8718 5.92319C12.7947 5.76668 12.7685 5.58995 12.797 5.41782C12.8254 5.24568 12.9071 5.08678 13.0304 4.96341C13.1538 4.84004 13.3127 4.75839 13.4848 4.72994C13.657 4.70148 13.8337 4.72764 13.9902 4.80474C14.1467 4.88184 14.2752 5.00601 14.3575 5.15983C14.4399 5.31365 14.472 5.48939 14.4493 5.66239C14.4255 5.84496 14.3419 6.01452 14.2117 6.14472C14.0815 6.27491 13.912 6.35844 13.7294 6.38232ZM21.1386 21.4247C20.9734 21.4247 20.8119 21.4737 20.6746 21.5655C20.5372 21.6573 20.4301 21.7878 20.3669 21.9404C20.3037 22.093 20.2871 22.261 20.3194 22.423C20.3516 22.585 20.4311 22.7339 20.548 22.8507C20.6648 22.9675 20.8136 23.0471 20.9757 23.0793C21.1377 23.1115 21.3057 23.095 21.4583 23.0318C21.6109 22.9685 21.7414 22.8615 21.8332 22.7241C21.9249 22.5868 21.9739 22.4253 21.9739 22.26C21.9739 22.0385 21.8859 21.826 21.7293 21.6694C21.5726 21.5127 21.3602 21.4247 21.1386 21.4247ZM21.1386 17.2482C20.9734 17.2482 20.8119 17.2972 20.6746 17.3889C20.5372 17.4807 20.4301 17.6112 20.3669 17.7638C20.3037 17.9165 20.2871 18.0844 20.3194 18.2464C20.3516 18.4085 20.4311 18.5573 20.548 18.6741C20.6648 18.791 20.8136 18.8705 20.9757 18.9027C21.1377 18.935 21.3057 18.9184 21.4583 18.8552C21.6109 18.792 21.7414 18.6849 21.8332 18.5476C21.9249 18.4102 21.9739 18.2487 21.9739 18.0835C21.9739 17.8619 21.8859 17.6495 21.7293 17.4928C21.5726 17.3362 21.3602 17.2482 21.1386 17.2482ZM21.1386 13.0716C20.9734 13.0716 20.8119 13.1206 20.6746 13.2124C20.5372 13.3042 20.4301 13.4346 20.3669 13.5873C20.3037 13.7399 20.2871 13.9078 20.3194 14.0699C20.3516 14.2319 20.4311 14.3808 20.548 14.4976C20.6648 14.6144 20.8136 14.694 20.9757 14.7262C21.1377 14.7584 21.3057 14.7419 21.4583 14.6786C21.6109 14.6154 21.7414 14.5084 21.8332 14.371C21.9249 14.2336 21.9739 14.0721 21.9739 13.9069C21.9739 13.6854 21.8859 13.4729 21.7293 13.3163C21.5726 13.1596 21.3602 13.0716 21.1386 13.0716ZM17.7974 21.4247C17.6322 21.4247 17.4707 21.4737 17.3333 21.5655C17.1959 21.6573 17.0889 21.7878 17.0256 21.9404C16.9624 22.093 16.9459 22.261 16.9781 22.423C17.0103 22.585 17.0899 22.7339 17.2067 22.8507C17.3235 22.9675 17.4724 23.0471 17.6344 23.0793C17.7964 23.1115 17.9644 23.095 18.117 23.0318C18.2697 22.9685 18.4001 22.8615 18.4919 22.7241C18.5837 22.5868 18.6327 22.4253 18.6327 22.26C18.6327 22.0385 18.5447 21.826 18.388 21.6694C18.2314 21.5127 18.0189 21.4247 17.7974 21.4247ZM17.7974 17.2482C17.6322 17.2482 17.4707 17.2972 17.3333 17.3889C17.1959 17.4807 17.0889 17.6112 17.0256 17.7638C16.9624 17.9165 16.9459 18.0844 16.9781 18.2464C17.0103 18.4085 17.0899 18.5573 17.2067 18.6741C17.3235 18.791 17.4724 18.8705 17.6344 18.9027C17.7964 18.935 17.9644 18.9184 18.117 18.8552C18.2697 18.792 18.4001 18.6849 18.4919 18.5476C18.5837 18.4102 18.6327 18.2487 18.6327 18.0835C18.6327 17.8619 18.5447 17.6495 18.388 17.4928C18.2314 17.3362 18.0189 17.2482 17.7974 17.2482ZM17.7974 13.0716C17.6322 13.0716 17.4707 13.1206 17.3333 13.2124C17.1959 13.3042 17.0889 13.4346 17.0256 13.5873C16.9624 13.7399 16.9459 13.9078 16.9781 14.0699C17.0103 14.2319 17.0899 14.3808 17.2067 14.4976C17.3235 14.6144 17.4724 14.694 17.6344 14.7262C17.7964 14.7584 17.9644 14.7419 18.117 14.6786C18.2697 14.6154 18.4001 14.5084 18.4919 14.371C18.5837 14.2336 18.6327 14.0721 18.6327 13.9069C18.6327 13.6854 18.5447 13.4729 18.388 13.3163C18.2314 13.1596 18.0189 13.0716 17.7974 13.0716Z" fill="#666666"/>
</svg>
