<svg width="27" height="28" viewBox="0 0 27 28" fill="none" xmlns="http://www.w3.org/2000/svg">
<path d="M16.2289 8.21612C17.3168 8.42838 18.3167 8.96047 19.1005 9.74428C19.8843 10.5281 20.4164 11.528 20.6287 12.6159M16.2289 3.76062C18.4892 4.01173 20.597 5.02395 22.2062 6.63108C23.8154 8.23821 24.8302 10.3447 25.0842 12.6048M11.9705 16.9746C10.6321 15.6362 9.57528 14.1228 8.80003 12.5081C8.73334 12.3692 8.7 12.2998 8.67439 12.2119C8.58336 11.8996 8.64874 11.5162 8.83811 11.2517C8.8914 11.1773 8.95507 11.1136 9.0824 10.9863C9.47181 10.5969 9.66652 10.4022 9.79382 10.2064C10.2739 9.468 10.2739 8.51611 9.79382 7.77773C9.66652 7.58194 9.47182 7.38723 9.0824 6.99781L8.86534 6.78075C8.27338 6.18879 7.9774 5.89281 7.65952 5.73203C7.02733 5.41227 6.28074 5.41227 5.64854 5.73203C5.33067 5.89281 5.03469 6.18879 4.44273 6.78075L4.26714 6.95634C3.67721 7.54627 3.38224 7.84123 3.15696 8.24226C2.90699 8.68726 2.72725 9.37841 2.72877 9.88881C2.73014 10.3488 2.81936 10.6631 2.99781 11.2919C3.95683 14.6707 5.76629 17.859 8.42619 20.5189C11.0861 23.1788 14.2744 24.9883 17.6532 25.9473C18.282 26.1257 18.5963 26.215 19.0563 26.2163C19.5667 26.2179 20.2578 26.0381 20.7028 25.7881C21.1039 25.5629 21.3988 25.2679 21.9888 24.678L22.1644 24.5024C22.7563 23.9104 23.0523 23.6144 23.2131 23.2966C23.5328 22.6644 23.5328 21.9178 23.2131 21.2856C23.0523 20.9677 22.7563 20.6717 22.1644 20.0798L21.9473 19.8627C21.5579 19.4733 21.3632 19.2786 21.1674 19.1513C20.429 18.6712 19.4771 18.6712 18.7387 19.1513C18.5429 19.2786 18.3482 19.4733 17.9588 19.8627C17.8315 19.99 17.7678 20.0537 17.6934 20.107C17.4289 20.2964 17.0455 20.3617 16.7332 20.2707C16.6453 20.2451 16.5759 20.2118 16.437 20.1451C14.8223 19.3698 13.3089 18.313 11.9705 16.9746Z" stroke="#666666" stroke-width="1.21514" stroke-linecap="round" stroke-linejoin="round"/>
</svg>
