<svg width="27" height="27" viewBox="0 0 27 27" fill="none" xmlns="http://www.w3.org/2000/svg">
<g clip-path="url(#clip0_104_441)">
<mask id="mask0_104_441" style="mask-type:luminance" maskUnits="userSpaceOnUse" x="-1" y="0" width="27" height="28">
<path d="M-0.809448 0.659302H25.9206V27.3893H-0.809448V0.659302Z" fill="white"/>
</mask>
<g mask="url(#mask0_104_441)">
<mask id="mask1_104_441" style="mask-type:luminance" maskUnits="userSpaceOnUse" x="-1" y="0" width="27" height="28">
<path d="M-0.809448 0.659302H25.9206V27.3893H-0.809448V0.659302Z" fill="white"/>
</mask>
<g mask="url(#mask1_104_441)">
<path d="M12.5554 4.00119C11.6441 4.00119 10.7729 4.16852 9.94177 4.50319C9.14121 4.82556 8.43257 5.28014 7.81587 5.86695C7.20215 6.45091 6.72746 7.12021 6.39181 7.87485C6.04587 8.65263 5.8729 9.46709 5.8729 10.3182C5.8729 12.1366 6.75003 14.6297 8.5043 17.7975C9.63172 19.8333 10.984 21.9166 12.5611 24.0472C12.5611 24.0472 12.5595 24.0477 12.5554 24.0477C12.5513 24.0477 12.5481 24.0493 12.5457 24.0525C14.1255 21.9191 15.4791 19.8347 16.6065 17.7992C18.3608 14.6318 19.2379 12.1382 19.2379 10.3182C19.2379 9.46709 19.0649 8.65263 18.719 7.87485C18.3833 7.12021 17.9086 6.45091 17.2949 5.86695C16.6782 5.28014 15.9696 4.82556 15.169 4.50319C14.3379 4.16852 13.4667 4.00119 12.5554 4.00119ZM12.5554 2.33057C13.6825 2.33057 14.7618 2.53821 15.7931 2.95349C16.7911 3.35538 17.6756 3.9231 18.4465 4.65665C19.2203 5.39294 19.82 6.23936 20.2454 7.19593C20.6875 8.18981 20.9085 9.23058 20.9085 10.3182C20.9085 12.426 19.9617 15.1895 18.068 18.6086C16.905 20.7084 15.5145 22.8507 13.8964 25.0357C13.5652 25.4908 13.1182 25.7183 12.5554 25.7183C11.9926 25.7183 11.5469 25.4926 11.2184 25.041C9.59762 22.8515 8.20576 20.7068 7.04282 18.6068C5.14912 15.1873 4.20227 12.4244 4.20227 10.3182C4.20227 9.23058 4.4233 8.18981 4.86536 7.19593C5.29082 6.23937 5.89045 5.39295 6.66427 4.65665C7.4352 3.9231 8.31969 3.35538 9.31774 2.95349C10.349 2.53821 11.4283 2.33057 12.5554 2.33057Z" fill="#666666"/>
<path d="M12.5552 7.34448C13.4779 7.34448 14.2654 7.67069 14.9179 8.32311C15.5703 8.97553 15.8965 9.76307 15.8965 10.6857C15.8965 11.6084 15.5703 12.3959 14.9179 13.0483C14.2654 13.7008 13.4779 14.027 12.5552 14.027C11.6326 14.027 10.845 13.7008 10.1926 13.0483C9.5402 12.3959 9.21399 11.6084 9.21399 10.6857C9.21399 9.76307 9.5402 8.97553 10.1926 8.32311C10.845 7.67069 11.6326 7.34448 12.5552 7.34448ZM12.5552 9.01511C12.0939 9.01511 11.7001 9.17821 11.3739 9.50442C11.0477 9.83064 10.8846 10.2244 10.8846 10.6857C10.8846 11.1471 11.0477 11.5408 11.3739 11.867C11.7001 12.1933 12.0939 12.3564 12.5552 12.3564C13.0166 12.3564 13.4103 12.1933 13.7366 11.867C14.0628 11.5408 14.2259 11.1471 14.2259 10.6857C14.2259 10.2244 14.0628 9.83064 13.7366 9.50442C13.4103 9.17821 13.0166 9.01511 12.5552 9.01511Z" fill="#666666"/>
</g>
</g>
</g>
<defs>
<clipPath id="clip0_104_441">
<rect width="26.73" height="26.73" fill="white" transform="translate(0.256104 0.00195312)"/>
</clipPath>
</defs>
</svg>
