<svg width="27" height="27" viewBox="0 0 27 27" fill="none" xmlns="http://www.w3.org/2000/svg">
<path d="M6.17717 21.7316C6.85469 20.1354 8.43655 19.0158 10.2799 19.0158H16.9624C18.8057 19.0158 20.3876 20.1354 21.0651 21.7316M18.0761 10.6627C18.0761 13.1231 16.0816 15.1177 13.6211 15.1177C11.1607 15.1177 9.16614 13.1231 9.16614 10.6627C9.16614 8.20227 11.1607 6.2077 13.6211 6.2077C16.0816 6.2077 18.0761 8.20227 18.0761 10.6627ZM24.7586 13.4471C24.7586 19.5981 19.7722 24.5846 13.6211 24.5846C7.47007 24.5846 2.48364 19.5981 2.48364 13.4471C2.48364 7.296 7.47007 2.30957 13.6211 2.30957C19.7722 2.30957 24.7586 7.296 24.7586 13.4471Z" stroke="#666666" stroke-width="1.4" stroke-linecap="round" stroke-linejoin="round"/>
</svg>
