<svg width="27" height="27" viewBox="0 0 27 27" fill="none" xmlns="http://www.w3.org/2000/svg">
<path d="M11.3936 18.092H15.8486M10.0571 24.7745H17.1851C19.0563 24.7745 19.992 24.7745 20.7067 24.4103C21.3354 24.09 21.8465 23.5789 22.1669 22.9502C22.5311 22.2354 22.5311 21.2998 22.5311 19.4285V7.84551C22.5311 5.97424 22.5311 5.0386 22.1669 4.32387C21.8465 3.69517 21.3354 3.18402 20.7067 2.86369C19.992 2.49951 19.0563 2.49951 17.1851 2.49951H10.0571C8.18578 2.49951 7.25015 2.49951 6.53541 2.86369C5.90672 3.18402 5.39557 3.69517 5.07523 4.32387C4.71106 5.0386 4.71106 5.97424 4.71106 7.84551V19.4285C4.71106 21.2998 4.71106 22.2354 5.07523 22.9502C5.39557 23.5789 5.90672 24.09 6.53541 24.4103C7.25015 24.7745 8.18578 24.7745 10.0571 24.7745ZM16.9623 10.2958C16.9623 12.1411 15.4664 13.637 13.6211 13.637C11.7757 13.637 10.2798 12.1411 10.2798 10.2958C10.2798 8.45044 11.7757 6.95451 13.6211 6.95451C15.4664 6.95451 16.9623 8.45044 16.9623 10.2958Z" stroke="#666666" stroke-width="1.55925" stroke-linecap="round" stroke-linejoin="round"/>
</svg>
